<svg width="18" height="18" viewBox="0 0 18 18" fill="none" xmlns="http://www.w3.org/2000/svg">
<rect width="18" height="18" fill="white"/>
<path d="M12.182 2.18691C12.209 3.00002 11.53 3.68127 10.5156 3.70984C9.50171 3.73841 8.78171 3.10111 8.73521 2.30008C8.68871 1.49905 9.4477 0.8134 10.3851 0.782631C11.323 0.751863 12.151 1.38478 12.176 2.18691" fill="#FF4800"/>
<path d="M5.81721 8.28874C5.92971 7.45367 6.45161 6.34278 6.45161 6.34278C6.45161 6.34278 6.90161 5.43958 7.61411 4.94179C8.32651 4.44407 8.96401 4.55396 9.60591 4.55506C9.94641 4.55506 10.1204 4.63637 10.3649 4.72531C11.145 5.00882 11.551 5.67694 11.433 6.54607C11.325 7.33169 11.164 8.1097 11.017 8.88873C10.5824 11.1896 10.1439 13.4902 9.70191 15.7903C9.61741 16.1429 9.70901 16.5061 9.95991 16.8133C10.1399 17.0331 10.1099 17.143 9.84741 17.177C9.48031 17.2231 9.10611 17.2309 8.73601 17.2C8.23911 17.1562 7.75051 17.0715 7.27961 16.9474C6.39921 16.7067 6.01521 16.2584 6.06171 15.1046C6.08571 14.5025 6.23871 13.9058 6.35121 13.3114C6.76511 11.1138 7.18361 8.9162 7.60661 6.7186C7.60881 6.69662 7.60881 6.67457 7.60661 6.65266L7.56311 6.63728C7.49831 6.76914 7.44281 6.90343 7.39661 7.03947C7.34411 7.2284 7.26311 7.30862 7.06511 7.25917C6.91451 7.22664 6.75511 7.22247 6.60161 7.24708C6.48391 7.27067 6.38171 7.32452 6.31371 7.39873C6.28101 7.42583 6.25601 7.45748 6.24031 7.49176C6.22461 7.52605 6.21851 7.56231 6.22231 7.59843C6.22601 7.63447 6.23961 7.66964 6.26231 7.70172C6.28491 7.73388 6.31621 7.76238 6.35421 7.78553C6.48641 7.87322 6.59091 7.98098 6.66061 8.10127C6.73021 8.22156 6.76341 8.35152 6.75761 8.48214C6.75761 8.60302 6.72911 8.66346 6.60761 8.66346L5.89221 8.44368" fill="#414042"/>
</svg>
