<svg width="85" height="99" viewBox="0 0 85 99" fill="none" xmlns="http://www.w3.org/2000/svg">
<g filter="url(#filter0_d_288_6319)">
<path d="M64.1436 32.7433C63.6007 30.167 62.5544 27.7233 61.0649 25.5524C59.5754 23.3814 57.6719 21.5259 55.4636 20.0923C52.3775 17.8882 48.7743 16.5189 45.0033 16.1173C41.2323 15.7158 37.4216 16.2955 33.9406 17.8003C26.6406 20.7563 22.2466 26.1473 20.8316 33.5473C20.347 36.0313 20.3642 38.5872 20.8821 41.0645C21.4001 43.5418 22.4084 45.8905 23.8476 47.9723C26.1026 51.3953 28.4476 54.7633 30.7576 58.1573L33.7216 62.5393C33.7634 62.5887 33.8025 62.6405 33.8386 62.6943C36.0976 66.0643 38.3796 69.4203 40.6476 72.7853C40.8019 73.0735 41.0173 73.3246 41.2785 73.5212C41.5398 73.7177 41.8408 73.8549 42.1606 73.9233C42.6058 74.0057 43.0657 73.9453 43.4746 73.7508C43.8835 73.5563 44.2205 73.2377 44.4376 72.8403C45.1169 71.8283 45.8016 70.8193 46.4916 69.8133C47.3696 68.5253 48.2486 67.2383 49.1096 65.9413L51.1186 62.9693L54.2186 58.3803C54.2646 58.3033 54.3086 58.2303 54.3566 58.1593C54.8139 57.4853 55.2726 56.8123 55.7326 56.1403L55.8096 56.0263C57.6396 53.3483 59.4766 50.6753 61.2646 47.9733C62.7776 45.7747 63.8152 43.2845 64.3109 40.662C64.8067 38.0395 64.7497 35.3425 64.1436 32.7433V32.7433Z" fill="#671BB5"/>
</g>
<path d="M42.4785 46.6763C47.4491 46.6763 51.4785 42.6468 51.4785 37.6763C51.4785 32.7057 47.4491 28.6763 42.4785 28.6763C37.508 28.6763 33.4785 32.7057 33.4785 37.6763C33.4785 42.6468 37.508 46.6763 42.4785 46.6763Z" fill="white"/>
<defs>
<filter id="filter0_d_288_6319" x="0.480469" y="0.993591" width="84.1641" height="97.9656" filterUnits="userSpaceOnUse" color-interpolation-filters="sRGB">
<feFlood flood-opacity="0" result="BackgroundImageFix"/>
<feColorMatrix in="SourceAlpha" type="matrix" values="0 0 0 0 0 0 0 0 0 0 0 0 0 0 0 0 0 0 127 0" result="hardAlpha"/>
<feOffset dy="5"/>
<feGaussianBlur stdDeviation="10"/>
<feColorMatrix type="matrix" values="0 0 0 0 0.815686 0 0 0 0 0.815686 0 0 0 0 0.815686 0 0 0 1 0"/>
<feBlend mode="normal" in2="BackgroundImageFix" result="effect1_dropShadow_288_6319"/>
<feBlend mode="normal" in="SourceGraphic" in2="effect1_dropShadow_288_6319" result="shape"/>
</filter>
</defs>
</svg>
